<?xml version="1.0" encoding="utf-8"?>
<!-- Generator: Adobe Illustrator 23.0.3, SVG Export Plug-In . SVG Version: 6.00 Build 0)  -->
<svg version="1.1" id="Camada_1" xmlns="http://www.w3.org/2000/svg" xmlns:xlink="http://www.w3.org/1999/xlink" x="0px" y="0px"
	 viewBox="0 0 380.4 81.1" style="enable-background:new 0 0 380.4 81.1;" xml:space="preserve">
<style type="text/css">
	.st0{stroke:#F9FF00;stroke-width:2;stroke-miterlimit:10;}
	.st1{fill-rule:evenodd;clip-rule:evenodd;}
</style>
<g>
	<path class="st0" d="M66.3,24.6H47.1c-9.3-0.3-10.7,2.3-4.1,7.7c11.8,10.3,17.5,20.3,17.3,30.1c-0.2,9.7-6,15.6-17.3,17.4H1.1V56.4
		h16.6c10.3,0.3,11.6-2.6,3.9-8.6c-12.6-11.6-18-22.3-16.1-32C7.3,6,13.3,1.2,23.3,1.2h42.9V24.6z"/>
	<path class="st0" d="M137.9,1.2v23.4h-25v55.3H87.3V24.6h-25V1.2H137.9z"/>
	<path class="st0" d="M133,79.9l25.9-78.7H198l26.3,78.7h-29.8l-5-14.2h-23.4l-5,14.2H133z M178.5,18.6l-11.3,31.2h21.7L178.5,18.6z
		"/>
	<path class="st0" d="M223.2,79.9V1.2h51.2c6.3,0.6,11.5,2.3,15.6,5c4.1,2.8,7,6.5,8.9,11.1c1.5,7,1.5,12.4,0.2,16.1
		c-1.3,3.8-3.6,6.9-6.9,9.5c-3.3,2.5-8,4.5-14.1,6l2.9,3.8c2,2.5,5.4,3.8,10.2,3.8h16.2v23.4h-18.9c-8.1,0-16.4-4.3-24.7-13
		l-12.5-13v26H223.2z M251.7,20.8v14.5h19.8c1.1,0,2.2-0.4,3.4-1.2c1.2-0.8,1.9-2.8,2-5.9c-0.2-3-0.9-5-2.2-6
		c-1.3-1-2.4-1.4-3.2-1.4H251.7z"/>
	<path class="st0" d="M379.4,1.2v23.4h-25v55.3h-25.6V24.6h-25V1.2H379.4z"/>
</g>
<rect x="55.8" y="2.2" class="st1" width="15.6" height="21.4"/>
</svg>
